<svg width="187" height="25" viewBox="0 0 187 25" fill="none" xmlns="http://www.w3.org/2000/svg">
<path d="M18.7667 19.6805V24H0.757814V0.741325H18.3347V5.06079H6.10731V10.1112H16.906V14.2978H6.10731V19.6805H18.7667ZM21.3882 0.741325H31.9543C34.4795 0.741325 36.7057 1.22865 38.6329 2.2033C40.5822 3.1558 42.0884 4.50701 43.1517 6.25695C44.2371 8.00689 44.7798 10.0448 44.7798 12.3707C44.7798 14.6965 44.2371 16.7344 43.1517 18.4844C42.0884 20.2343 40.5822 21.5966 38.6329 22.5713C36.7057 23.5238 34.4795 24 31.9543 24H21.3882V0.741325ZM31.6885 19.5809C34.0143 19.5809 35.864 18.9385 37.2373 17.6537C38.6329 16.3468 39.3306 14.5858 39.3306 12.3707C39.3306 10.1556 38.6329 8.40561 37.2373 7.12085C35.864 5.81393 34.0143 5.16047 31.6885 5.16047H26.7709V19.5809H31.6885ZM57.5113 24.3987C54.1886 24.3987 51.597 23.4794 49.7363 21.6409C47.8977 19.8024 46.9785 17.1775 46.9785 13.7662V0.741325H52.3612V13.5668C52.3612 17.7312 54.089 19.8134 57.5445 19.8134C59.228 19.8134 60.5128 19.315 61.3988 18.3182C62.2849 17.2993 62.7279 15.7155 62.7279 13.5668V0.741325H68.0442V13.7662C68.0442 17.1775 67.1138 19.8024 65.2531 21.6409C63.4146 23.4794 60.834 24.3987 57.5113 24.3987ZM87.4182 12.0052H92.3357V21.4415C91.0731 22.394 89.6111 23.125 87.9498 23.6345C86.2885 24.144 84.6161 24.3987 82.9326 24.3987C80.5181 24.3987 78.3473 23.8892 76.4201 22.8703C74.493 21.8292 72.9756 20.4004 71.8681 18.5841C70.7827 16.7455 70.24 14.6744 70.24 12.3707C70.24 10.0669 70.7827 8.00689 71.8681 6.1905C72.9756 4.35196 74.5041 2.92321 76.4534 1.90426C78.4027 0.863157 80.5956 0.342606 83.0323 0.342606C85.0702 0.342606 86.9198 0.685947 88.5811 1.37263C90.2424 2.05932 91.638 3.05612 92.7677 4.36303L89.3121 7.55279C87.6508 5.80286 85.6461 4.92789 83.2981 4.92789C81.8139 4.92789 80.496 5.238 79.3441 5.85823C78.1922 6.47847 77.2951 7.35343 76.6527 8.48314C76.0104 9.61285 75.6892 10.9087 75.6892 12.3707C75.6892 13.8105 76.0104 15.0952 76.6527 16.225C77.2951 17.3547 78.1812 18.2407 79.3109 18.8831C80.4627 19.5033 81.7696 19.8134 83.2316 19.8134C84.7822 19.8134 86.1777 19.4812 87.4182 18.8166V12.0052ZM110.494 24L106.008 17.5208H105.742H101.057V24H95.6745V0.741325H105.742C107.802 0.741325 109.585 1.08467 111.092 1.77135C112.62 2.45804 113.794 3.43269 114.614 4.6953C115.433 5.95791 115.843 7.45311 115.843 9.1809C115.843 10.9087 115.422 12.4039 114.58 13.6665C113.761 14.907 112.587 15.8595 111.058 16.524L116.275 24H110.494ZM110.394 9.1809C110.394 7.87399 109.973 6.87719 109.131 6.1905C108.29 5.48166 107.06 5.12725 105.443 5.12725H101.057V13.2346H105.443C107.06 13.2346 108.29 12.8801 109.131 12.1713C109.973 11.4625 110.394 10.4657 110.394 9.1809ZM133.764 19.016H122.965L120.905 24H115.39L125.756 0.741325H131.073L141.473 24H135.824L133.764 19.016ZM132.069 14.9291L128.381 6.02437L124.693 14.9291H132.069ZM142.224 0.741325H152.79C155.316 0.741325 157.542 1.22865 159.469 2.2033C161.418 3.1558 162.925 4.50701 163.988 6.25695C165.073 8.00689 165.616 10.0448 165.616 12.3707C165.616 14.6965 165.073 16.7344 163.988 18.4844C162.925 20.2343 161.418 21.5966 159.469 22.5713C157.542 23.5238 155.316 24 152.79 24H142.224V0.741325ZM152.525 19.5809C154.85 19.5809 156.7 18.9385 158.073 17.6537C159.469 16.3468 160.167 14.5858 160.167 12.3707C160.167 10.1556 159.469 8.40561 158.073 7.12085C156.7 5.81393 154.85 5.16047 152.525 5.16047H147.607V19.5809H152.525ZM186.023 19.6805V24H168.014V0.741325H185.591V5.06079H173.363V10.1112H184.162V14.2978H173.363V19.6805H186.023Z" fill="white"/>
</svg>
